<svg width="34" height="40" viewBox="0 0 34 40" fill="none" xmlns="http://www.w3.org/2000/svg">
<path d="M28.963 4.955C25.7677 1.75969 21.5187 0 16.9996 0C12.4812 0 8.23226 1.75969 5.03703 4.955C1.8418 8.15031 0.0820312 12.3992 0.0820312 16.9184C0.0820312 26.0598 8.72593 33.6634 13.3693 37.7482C14.0145 38.3152 14.5721 38.8058 15.0158 39.2205C15.5719 39.7398 16.2858 39.9999 16.9997 39.9999C17.7136 39.9999 18.4274 39.7398 18.9844 39.2205C19.428 38.8057 19.9857 38.3152 20.6309 37.7482C25.2742 33.6633 33.9181 26.0598 33.9181 16.9184C33.918 12.3992 32.1583 8.15031 28.963 4.955ZM16.9996 23.7346C12.8889 23.7346 9.54445 20.3902 9.54445 16.2787C9.54445 12.168 12.8889 8.82351 16.9996 8.82351C21.1111 8.82351 24.4555 12.168 24.4555 16.2787C24.4555 20.3902 21.1111 23.7346 16.9996 23.7346Z" fill="#8B7EFD"/>
</svg>
